<svg width="299" height="320" viewBox="0 0 299 320" fill="none" xmlns="http://www.w3.org/2000/svg">
<g filter="url(#filter0_i_716_806)">
<path d="M182.982 166.698C270.848 215.424 216.62 83.415 176.66 7.55518C175.642 5.62381 176.97 3.31633 179.148 3.17856L226.993 0.152922C228.404 0.0637062 229.672 0.923259 230.056 2.28363C247.148 62.7992 283.401 190.174 296.809 233.674C310.388 277.73 257.535 254.677 229.411 237.643C196.295 211.183 118.379 152.905 71.6502 131.473C25.3507 110.237 36.0014 139.849 47.37 157.768C47.5801 158.099 47.8522 158.379 48.174 158.603L271.995 314.538C274.405 316.217 273.217 320 270.281 320H184.055C183.361 320 182.712 319.779 182.176 319.338C129.451 276.017 21.3389 179.972 4.25246 136.93C-12.8081 93.9538 25.5406 89.8513 47.2559 93.2035C47.5465 93.2484 47.7983 93.3253 48.0622 93.455C56.6692 97.6868 94.8698 117.835 182.982 166.698Z" fill="#091B47" fill-opacity="0.3"/>
</g>
<defs>
<filter id="filter0_i_716_806" x="0" y="0.146484" width="303" height="323.854" filterUnits="userSpaceOnUse" color-interpolation-filters="sRGB">
<feFlood flood-opacity="0" result="BackgroundImageFix"/>
<feBlend mode="normal" in="SourceGraphic" in2="BackgroundImageFix" result="shape"/>
<feColorMatrix in="SourceAlpha" type="matrix" values="0 0 0 0 0 0 0 0 0 0 0 0 0 0 0 0 0 0 127 0" result="hardAlpha"/>
<feOffset dx="4" dy="4"/>
<feGaussianBlur stdDeviation="2"/>
<feComposite in2="hardAlpha" operator="arithmetic" k2="-1" k3="1"/>
<feColorMatrix type="matrix" values="0 0 0 0 0 0 0 0 0 0 0 0 0 0 0 0 0 0 0.25 0"/>
<feBlend mode="normal" in2="shape" result="effect1_innerShadow_716_806"/>
</filter>
</defs>
</svg>
